<svg width="131" height="115" viewBox="0 0 131 115" fill="none" xmlns="http://www.w3.org/2000/svg">
<path d="M43.4303 0.130784C31.1156 1.67296 20.5699 8.88488 14.3558 19.9749L13.1538 22.1068L6.57692 22.1748L0 22.2428L3.74204 26.0529C5.80583 28.162 7.91498 30.1351 8.43659 30.4299L9.36643 30.9969L9.47983 48.7319C9.57055 67.873 9.57055 67.873 10.9086 73.7695C15.3083 93.4549 31.7279 109.262 52.5019 113.821C57.1284 114.841 58.6933 115 64.6352 115C70.9626 115 73.0491 114.773 78.5374 113.412C86.0669 111.575 93.4829 108.015 99.7877 103.252C101.647 101.846 106.092 98.0134 106.705 97.265C106.909 97.0382 107.703 96.1311 108.496 95.2693C119.337 83.3401 126.594 66.2401 129.475 45.829C130.268 40.1592 130.518 36.5306 130.518 30.1351V24.6014L129.18 26.1436C124.667 31.3598 118.339 36.0543 110.9 39.7057C104.686 42.7673 100.627 44.0827 92.1222 45.8517C86.4071 47.0083 84.0258 47.7567 80.6239 49.3669C72.7316 53.1316 66.6083 59.4137 63.1157 67.3514C60.0767 74.2685 59.3056 83.1813 61.12 90.7335C61.5962 92.7746 62.8662 96.4712 63.2064 96.9248C63.3425 97.0836 63.3879 97.265 63.3425 97.333C63.0477 97.6279 60.621 93.0467 59.6685 90.4386C58.5119 87.1955 58.1036 84.5194 58.081 80.1877C58.0583 76.8085 58.149 75.856 58.5799 73.8376C60.3035 66.104 64.6352 58.9602 72.2327 51.3627C76.0427 47.5299 79.3766 44.8765 82.8011 42.9941L84.9329 41.8148V37.6872C84.9329 31.768 84.2299 28.094 82.1888 23.2861C80.1476 18.5461 77.5622 14.7361 73.8202 11.0167C70.6905 7.88701 67.8556 5.82322 64.1816 4.0089C58.9201 1.37813 54.2482 0.176142 48.5331 0.0173889C46.6734 -0.0279691 44.3602 0.0173889 43.4303 0.130784ZM49.3722 18.1152C56.7429 21.7439 56.4934 31.8587 48.964 35.3286C48.0342 35.7822 47.4672 35.8502 45.358 35.8502C43.0221 35.8502 42.7726 35.8049 41.3212 35.1245C39.3935 34.1947 37.6925 32.4937 36.7627 30.5207C36.105 29.1372 36.0596 28.8878 36.0596 26.4384C36.0596 24.0798 36.1277 23.6943 36.672 22.5377C37.3297 21.1316 38.9626 19.2265 40.1645 18.4781C41.8428 17.4576 43.2035 17.1174 45.4941 17.2081C47.4899 17.2534 47.83 17.3442 49.3722 18.1152Z" fill="#02001A"/>
<path d="M40.368 19.6097C37.0342 21.1519 36.5579 25.5743 39.5062 27.6381C40.6855 28.4772 41.8875 28.7494 43.2709 28.4319C45.244 28.0237 47.0583 25.8011 47.0583 23.8054C47.0583 22.2632 45.6295 20.1087 44.1781 19.4963C43.1575 19.0654 41.4566 19.1108 40.368 19.6097Z" fill="#02001A"/>
<circle cx="45.6004" cy="26.3543" r="12.1317" fill="white"/>
<circle cx="42.6684" cy="22.5903" r="5.02" fill="#02001A"/>
</svg>
