<svg width="465" height="115" viewBox="0 0 465 115" fill="none" xmlns="http://www.w3.org/2000/svg">
<path d="M415.219 93.368V26.168H440.179C444.915 26.168 449.107 27.128 452.755 29.048C456.403 30.904 459.251 33.528 461.299 36.92C463.347 40.248 464.371 44.12 464.371 48.536C464.371 52.888 463.379 56.76 461.395 60.152C459.411 63.544 456.691 66.232 453.235 68.216C449.779 70.136 445.779 71.096 441.235 71.096H428.371V93.368H415.219ZM428.371 59H440.947C443.891 59 446.291 58.04 448.147 56.12C450.067 54.136 451.027 51.608 451.027 48.536C451.027 45.464 449.971 42.968 447.859 41.048C445.811 39.128 443.155 38.168 439.891 38.168H428.371V59Z" fill="#02001A"/>
<path d="M390.505 94.5188C387.433 94.5188 384.553 94.0708 381.865 93.1748C379.177 92.2148 376.809 90.8708 374.761 89.1428C372.713 87.3508 371.113 85.1748 369.961 82.6148L380.809 77.6228C381.769 79.1588 383.081 80.5028 384.745 81.6548C386.409 82.7428 388.329 83.2868 390.505 83.2868C392.617 83.2868 394.249 82.9988 395.401 82.4228C396.553 81.7828 397.129 80.8868 397.129 79.7348C397.129 78.5828 396.649 77.7508 395.689 77.2388C394.793 76.6628 393.545 76.1828 391.945 75.7988L387.529 74.6468C382.921 73.4308 379.273 71.5108 376.585 68.8868C373.961 66.1988 372.649 63.1268 372.649 59.6708C372.649 54.7428 374.217 50.9348 377.353 48.2468C380.553 45.5588 385.065 44.2148 390.889 44.2148C393.897 44.2148 396.681 44.6628 399.241 45.5588C401.865 46.4548 404.105 47.7028 405.961 49.3028C407.817 50.9028 409.097 52.7588 409.801 54.8708L399.337 59.6708C398.889 58.3908 397.801 57.3668 396.073 56.5988C394.345 55.7668 392.617 55.3508 390.889 55.3508C389.161 55.3508 387.817 55.7348 386.857 56.5028C385.961 57.2068 385.513 58.1988 385.513 59.4788C385.513 60.3108 385.961 61.0148 386.857 61.5908C387.753 62.1028 389.033 62.5508 390.697 62.9348L396.937 64.4708C400.073 65.2388 402.569 66.4868 404.425 68.2148C406.345 69.8788 407.721 71.7668 408.553 73.8788C409.449 75.9268 409.897 77.9428 409.897 79.9268C409.897 82.8068 409.033 85.3668 407.305 87.6068C405.641 89.7828 403.337 91.4788 400.393 92.6948C397.513 93.9108 394.217 94.5188 390.505 94.5188Z" fill="#02001A"/>
<path d="M352.999 93.368V45.368H365.671V93.368H352.999ZM359.335 37.592C357.415 37.592 355.719 36.888 354.247 35.48C352.775 34.008 352.039 32.28 352.039 30.296C352.039 28.312 352.775 26.616 354.247 25.208C355.719 23.736 357.415 23 359.335 23C361.319 23 363.015 23.736 364.423 25.208C365.895 26.616 366.631 28.312 366.631 30.296C366.631 32.28 365.895 34.008 364.423 35.48C363.015 36.888 361.319 37.592 359.335 37.592Z" fill="#02001A"/>
<path d="M322.847 94.5188C317.983 94.5188 313.631 93.4628 309.791 91.3508C306.015 89.1748 303.039 86.1988 300.863 82.4228C298.751 78.6468 297.695 74.2948 297.695 69.3668C297.695 64.4388 298.751 60.0868 300.863 56.3108C302.975 52.5348 305.919 49.5908 309.695 47.4788C313.471 45.3028 317.791 44.2148 322.655 44.2148C327.583 44.2148 331.935 45.3028 335.711 47.4788C339.487 49.5908 342.431 52.5348 344.543 56.3108C346.655 60.0868 347.711 64.4388 347.711 69.3668C347.711 74.2948 346.655 78.6468 344.543 82.4228C342.431 86.1988 339.487 89.1748 335.711 91.3508C331.999 93.4628 327.711 94.5188 322.847 94.5188ZM322.847 82.8068C325.215 82.8068 327.295 82.2308 329.087 81.0788C330.879 79.9268 332.255 78.3588 333.215 76.3748C334.239 74.3268 334.751 71.9908 334.751 69.3668C334.751 66.7428 334.239 64.4388 333.215 62.4548C332.191 60.4068 330.751 58.8068 328.895 57.6548C327.103 56.5028 325.023 55.9268 322.655 55.9268C320.351 55.9268 318.271 56.5028 316.415 57.6548C314.623 58.8068 313.215 60.4068 312.191 62.4548C311.167 64.4388 310.655 66.7428 310.655 69.3668C310.655 71.9908 311.167 74.3268 312.191 76.3748C313.215 78.3588 314.655 79.9268 316.511 81.0788C318.367 82.2308 320.479 82.8068 322.847 82.8068Z" fill="#02001A"/>
<path d="M248.516 93.368V26.168H261.188V93.368H248.516ZM280.388 93.368V68.792H293.06V93.368H280.388ZM280.388 68.792C280.388 65.528 280.004 63 279.236 61.208C278.468 59.416 277.412 58.136 276.068 57.368C274.724 56.536 273.156 56.12 271.364 56.12C268.1 56.056 265.572 57.048 263.78 59.096C262.052 61.144 261.188 64.184 261.188 68.216H256.964C256.964 63.096 257.7 58.776 259.172 55.256C260.708 51.672 262.82 48.952 265.508 47.096C268.26 45.176 271.46 44.216 275.108 44.216C278.948 44.216 282.18 44.984 284.804 46.52C287.492 48.056 289.54 50.456 290.948 53.72C292.356 56.92 293.06 61.08 293.06 66.2V68.792H280.388Z" fill="#02001A"/>
<path d="M212.384 93.368L231.68 26.168H245.024L224.96 93.368H212.384ZM171.872 93.368L152 26.168H165.344L184.448 93.368H171.872ZM173.6 93.368L191.936 26.168H203.84L185.6 93.368H173.6ZM211.136 93.368L193.088 26.168H204.992L223.712 93.368H211.136Z" fill="#02001A"/>
<path d="M43.4303 0.130784C31.1156 1.67296 20.5699 8.88488 14.3558 19.9749L13.1538 22.1068L6.57692 22.1748L0 22.2428L3.74204 26.0529C5.80583 28.162 7.91498 30.1351 8.43659 30.4299L9.36643 30.9969L9.47983 48.7319C9.57055 67.873 9.57055 67.873 10.9086 73.7695C15.3083 93.4549 31.7279 109.262 52.5019 113.821C57.1284 114.841 58.6933 115 64.6352 115C70.9626 115 73.0491 114.773 78.5374 113.412C86.0669 111.575 93.4829 108.015 99.7877 103.252C101.647 101.846 106.092 98.0134 106.705 97.265C106.909 97.0382 107.703 96.1311 108.496 95.2693C119.337 83.3401 126.594 66.2401 129.475 45.829C130.268 40.1592 130.518 36.5306 130.518 30.1351V24.6014L129.18 26.1436C124.667 31.3598 118.339 36.0543 110.9 39.7057C104.686 42.7673 100.627 44.0827 92.1222 45.8517C86.4071 47.0083 84.0258 47.7567 80.6239 49.3669C72.7316 53.1316 66.6083 59.4137 63.1157 67.3514C60.0767 74.2685 59.3056 83.1813 61.12 90.7335C61.5962 92.7746 62.8662 96.4712 63.2064 96.9248C63.3425 97.0836 63.3879 97.265 63.3425 97.333C63.0477 97.6279 60.621 93.0467 59.6685 90.4386C58.5119 87.1955 58.1036 84.5194 58.081 80.1877C58.0583 76.8085 58.149 75.856 58.5799 73.8376C60.3035 66.104 64.6352 58.9602 72.2327 51.3627C76.0427 47.5299 79.3766 44.8765 82.8011 42.9941L84.9329 41.8148V37.6872C84.9329 31.768 84.2299 28.094 82.1888 23.2861C80.1476 18.5461 77.5622 14.7361 73.8202 11.0167C70.6905 7.88701 67.8556 5.82322 64.1816 4.0089C58.9201 1.37813 54.2482 0.176142 48.5331 0.0173889C46.6734 -0.0279691 44.3602 0.0173889 43.4303 0.130784ZM49.3722 18.1152C56.7429 21.7439 56.4934 31.8587 48.964 35.3286C48.0342 35.7822 47.4672 35.8502 45.358 35.8502C43.0221 35.8502 42.7726 35.8049 41.3212 35.1245C39.3935 34.1947 37.6925 32.4937 36.7627 30.5207C36.105 29.1372 36.0596 28.8878 36.0596 26.4384C36.0596 24.0798 36.1277 23.6943 36.672 22.5377C37.3297 21.1316 38.9626 19.2265 40.1645 18.4781C41.8428 17.4576 43.2035 17.1174 45.4941 17.2081C47.4899 17.2534 47.83 17.3442 49.3722 18.1152Z" fill="#02001A"/>
<path d="M40.368 19.6097C37.0342 21.1519 36.5579 25.5743 39.5062 27.6381C40.6855 28.4772 41.8875 28.7494 43.2709 28.4319C45.244 28.0237 47.0583 25.8011 47.0583 23.8054C47.0583 22.2632 45.6295 20.1087 44.1781 19.4963C43.1575 19.0654 41.4566 19.1108 40.368 19.6097Z" fill="#02001A"/>
<circle cx="45.6004" cy="26.3543" r="12.1317" fill="white"/>
<circle cx="42.6684" cy="22.5903" r="5.02" fill="#02001A"/>
</svg>
